# xmcd
#
# Track frame offsets:
#	150
#	21007
#	43434
#	61354
#	85658
#	97936
#	118225
#	138044
#	159397
#	176848
#	198425
#	221353
#
# Disc length: 3357 seconds
#
# Revision: 0
# Processed by: cddbd v1.5PL3 Copyright (c) Steve Scherf et al.
# Submitted via: audiograbber 1.82.01
#
DISCID=a00d1b0c
DTITLE=Eb Davis - I Wanna Talk About You
DYEAR=1999
DGENRE=Blues
TTITLE0=fix it man
TTITLE1=since you came along
TTITLE2=rather be with her
TTITLE3=I wanna talk about you
TTITLE4=when the lights go out
TTITLE5=tell me baby
TTITLE6=fool for the ladies
TTITLE7=I need someone
TTITLE8=next time you see me
TTITLE9=undercover man
TTITLE10=give it up
TTITLE11=higher ground
EXTD=
EXTT0=
EXTT1=
EXTT2=
EXTT3=
EXTT4=
EXTT5=
EXTT6=
EXTT7=
EXTT8=
EXTT9=
EXTT10=
EXTT11=
PLAYORDER=
